<svg id="Calque_1" data-name="Calque 1" xmlns="http://www.w3.org/2000/svg" viewBox="0 0 306.72 68.75"><defs><style>.cls-1{fill:#e9041e;}.cls-2{fill:#fff;}.cls-3{fill:none;}</style></defs><title>SG_RB_Brand Block_2 L_LIGHT BKGD-RGB</title><path d="M198,25.26a4.12,4.12,0,0,1,4.45,4.25c0,2.57-1.72,4.05-4.45,4.05h-5.44v4.2h-2.31V25.26Zm.13,6.23a1.85,1.85,0,0,0,2-1.95A2,2,0,0,0,198,27.32h-5.44v4.17Z"/><path d="M211,38.11c-4,0-7.28-2.65-7.28-6.62s3.3-6.62,7.28-6.62,7.25,2.7,7.25,6.62S215,38.11,211,38.11M211,27a4.54,4.54,0,0,0-4.88,4.48c0,2.58,1.9,4.5,4.88,4.5s4.85-1.93,4.85-4.5S214,27,211,27"/><path d="M227.85,38.09c-4.18,0-7.33-2.65-7.33-6.62s3.19-6.6,7.33-6.6a9.3,9.3,0,0,1,5.82,1.87l-1.24,1.83A7.19,7.19,0,0,0,227.92,27c-3.06,0-5,1.93-5,4.43s1.92,4.45,5,4.45a7.32,7.32,0,0,0,4.58-1.5l1.23,1.84a9.53,9.53,0,0,1-5.91,1.83"/><path d="M253.78,34.72l-1.43,3h-2.5l6.08-12.5h2.43l6.1,12.5H262l-1.43-3Zm1-2h4.82l-2.41-5.07Z"/><polygon points="276.73 37.76 276.73 32.41 268.55 32.41 268.55 37.76 266.23 37.76 266.23 25.26 268.55 25.26 268.55 30.36 276.73 30.36 276.73 25.26 279.05 25.26 279.05 37.76 276.73 37.76"/><polygon points="282.48 37.76 282.48 25.26 284.8 25.26 284.8 31.09 291.08 25.26 293.92 25.26 287.46 31.27 294.19 37.76 291.08 37.76 284.8 31.69 284.8 37.76 282.48 37.76"/><path d="M244.12,29.84H238.7V27.2h8.94V25.25H236.38V37.74h7.74c2.73,0,4.61-1.49,4.61-4s-1.88-3.95-4.61-3.95m.14,5.83H238.7V31.91h5.56c1.45,0,2.28.76,2.28,1.88s-.66,1.88-2.28,1.88"/><path d="M233.92,53.73v.14a2.37,2.37,0,0,1-.62,1.7,2.12,2.12,0,0,1-1.64.65,2.31,2.31,0,0,1-1.54-4,2.24,2.24,0,0,1,1.58-.59,2.28,2.28,0,0,1,1.9,1L233,53a1.66,1.66,0,0,0-1.31-.63,1.55,1.55,0,0,0-1.13.44,1.44,1.44,0,0,0-.44,1.09,1.47,1.47,0,0,0,.43,1.11,1.54,1.54,0,0,0,1.14.43,1.36,1.36,0,0,0,1.41-1h-1.55v-.77Z"/><path d="M239,56.1h-.78l-.9-1.58h-1.72V56.1h-.67V51.78h2.79a1.11,1.11,0,0,1,.88.37,1.5,1.5,0,0,1,.32,1,1.18,1.18,0,0,1-.85,1.31Zm-1.38-2.35a.53.53,0,0,0,.61-.59c0-.41-.22-.61-.65-.61h-2v1.2Z"/><path d="M244.25,53.93a2.28,2.28,0,1,1-3.82-1.71,2.24,2.24,0,0,1,1.55-.59,2.21,2.21,0,0,1,1.54.59,2.19,2.19,0,0,1,.73,1.71m-.7,0a1.5,1.5,0,0,0-.44-1.1A1.57,1.57,0,0,0,242,52.4a1.54,1.54,0,0,0-1.14.44,1.45,1.45,0,0,0-.45,1.09,1.48,1.48,0,0,0,.44,1.11,1.74,1.74,0,0,0,2.29,0,1.47,1.47,0,0,0,.43-1.11"/><path d="M249.2,54.68a1.36,1.36,0,0,1-.54,1.11,2.71,2.71,0,0,1-2.93,0,1.37,1.37,0,0,1-.55-1.11v-2.9h.68v2.73c0,.64.44,1,1.34,1s1.33-.32,1.33-1V51.78h.67Z"/><path d="M253.14,51.78a1.08,1.08,0,0,1,.87.37,1.45,1.45,0,0,1,.33,1,1.39,1.39,0,0,1-.34,1,1.28,1.28,0,0,1-1,.36h-2V56.1h-.67V51.78Zm-.11,2c.41,0,.62-.2.62-.59s-.22-.61-.66-.61h-2v1.2Z"/><path d="M160.53,52.85a2.67,2.67,0,0,0-1.47-.44c-.77,0-1.15.17-1.15.51s.14.33.43.39l1.18.14a2.49,2.49,0,0,1,1.21.38,1.05,1.05,0,0,1,.4.91,1.25,1.25,0,0,1-.5,1.08,2.35,2.35,0,0,1-1.44.38,3,3,0,0,1-2.13-.76l.37-.6a2.58,2.58,0,0,0,1.75.62,1.84,1.84,0,0,0,.9-.18.56.56,0,0,0,.32-.5.49.49,0,0,0-.39-.48,2.8,2.8,0,0,0-.68-.11l-.88-.06a1.82,1.82,0,0,1-.95-.34,1,1,0,0,1-.3-.78,1.15,1.15,0,0,1,.49-1,2.24,2.24,0,0,1,1.36-.36,2.81,2.81,0,0,1,1.9.63Z"/><path d="M166.31,53.93A2.2,2.2,0,0,1,164,56.22a2.31,2.31,0,0,1-1.55-4,2.32,2.32,0,0,1,3.09,0,2.19,2.19,0,0,1,.73,1.71m-.7,0a1.5,1.5,0,0,0-.44-1.1A1.57,1.57,0,0,0,164,52.4a1.54,1.54,0,0,0-1.14.44,1.45,1.45,0,0,0-.45,1.09,1.48,1.48,0,0,0,.44,1.11,1.74,1.74,0,0,0,2.29,0,1.47,1.47,0,0,0,.43-1.11"/><path d="M171.42,52.82l-.62.27a1.73,1.73,0,0,0-1.41-.69,1.64,1.64,0,0,0-1.18.42,1.61,1.61,0,0,0,0,2.21,1.61,1.61,0,0,0,1.19.43,1.7,1.7,0,0,0,1.41-.71l.58.39a2.37,2.37,0,0,1-2,1.07,2.25,2.25,0,0,1-1.67-.64,2.27,2.27,0,0,1-.64-1.65,2.2,2.2,0,0,1,.73-1.7,2.17,2.17,0,0,1,1.54-.58,2.4,2.4,0,0,1,2.08,1.18"/><rect x="172.37" y="51.78" width="0.67" height="4.32"/><polygon points="177.94 56.1 174.22 56.1 174.22 51.78 177.81 51.78 177.81 52.55 174.89 52.55 174.89 53.47 176.93 53.47 176.93 54.24 174.89 54.24 174.89 55.33 177.94 55.33 177.94 56.1"/><polygon points="182.34 52.55 180.69 52.55 180.69 56.1 180.01 56.1 180.01 52.55 178.36 52.55 178.36 51.78 182.34 51.78 182.34 52.55"/><polygon points="186.79 56.1 183.07 56.1 183.07 51.78 186.66 51.78 186.66 52.55 183.75 52.55 183.75 53.47 185.78 53.47 185.78 54.24 183.75 54.24 183.75 55.33 186.79 55.33 186.79 56.1"/><path d="M193.67,53.73v.14a2.37,2.37,0,0,1-.62,1.7,2.11,2.11,0,0,1-1.63.65,2.31,2.31,0,0,1-1.55-4,2.24,2.24,0,0,1,1.58-.59,2.31,2.31,0,0,1,1.91,1l-.64.39a1.64,1.64,0,0,0-1.31-.63,1.57,1.57,0,0,0-1.13.44,1.61,1.61,0,0,0,0,2.2,1.54,1.54,0,0,0,1.14.43,1.38,1.38,0,0,0,1.42-1h-1.56v-.77Z"/><polygon points="198.36 56.1 194.64 56.1 194.64 51.78 198.23 51.78 198.23 52.55 195.31 52.55 195.31 53.47 197.34 53.47 197.34 54.24 195.31 54.24 195.31 55.33 198.36 55.33 198.36 56.1"/><polygon points="203.26 56.1 202.26 56.1 199.91 52.5 199.91 56.1 199.23 56.1 199.23 51.78 200.24 51.78 202.59 55.38 202.59 51.78 203.26 51.78 203.26 56.1"/><polygon points="208.16 56.1 204.44 56.1 204.44 51.78 208.03 51.78 208.03 52.55 205.12 52.55 205.12 53.47 207.15 53.47 207.15 54.24 205.12 54.24 205.12 55.33 208.16 55.33 208.16 56.1"/><path d="M213.1,56.1h-.77l-.9-1.58h-1.72V56.1H209V51.78h2.79a1.08,1.08,0,0,1,.87.37,1.45,1.45,0,0,1,.33,1,1.19,1.19,0,0,1-.86,1.31Zm-1.38-2.35c.41,0,.62-.2.62-.59s-.22-.61-.66-.61h-2v1.2Z"/><path d="M218.14,56.1h-.74l-.39-.93h-2.34l-.39.93h-.74l1.88-4.32h.84Zm-1.48-1.69-.82-1.92L215,54.41Z"/><polygon points="222.15 56.1 218.81 56.1 218.81 51.78 219.48 51.78 219.48 55.33 222.15 55.33 222.15 56.1"/><polygon points="226.6 56.1 222.88 56.1 222.88 51.78 226.48 51.78 226.48 52.55 223.56 52.55 223.56 53.47 225.59 53.47 225.59 54.24 223.56 54.24 223.56 55.33 226.6 55.33 226.6 56.1"/><rect class="cls-1" x="156.77" y="18.9" width="25.1" height="12.8"/><rect x="156.77" y="31.45" width="25.1" height="12.55"/><rect class="cls-2" x="161.15" y="30.68" width="16.33" height="1.53"/><rect class="cls-3" x="118.98" y="-118.98" width="68.75" height="306.72" transform="translate(187.73 -118.98) rotate(90)"/><path d="M12.53,12.53H26.07v3.54H17v2.62h4.19a7.09,7.09,0,0,1,4.52,1.25,4.31,4.31,0,0,1,1.57,3.59,4.58,4.58,0,0,1-1.76,3.83,7.8,7.8,0,0,1-4.93,1.38h-8.1Zm7.8,12.92A2.84,2.84,0,0,0,22.09,25a1.55,1.55,0,0,0,.6-1.32c0-1.14-.79-1.71-2.36-1.71H17v3.5Z"/><path d="M44.55,12.53,37.84,25.05a8.13,8.13,0,0,1-2.61,3.06,5.86,5.86,0,0,1-3.37,1,7.9,7.9,0,0,1-2.87-.6l1.09-3.38a6.11,6.11,0,0,0,1.62.28,2.34,2.34,0,0,0,1.19-.3,3,3,0,0,0,1-.95l-6.3-11.67h4.84l3.78,7.82,3.91-7.82Z"/><path d="M61.39,25.1V32h-4.2V28.74H46.82V32H42.61V25.1h.58c1,0,1.63-.67,2-2a23.48,23.48,0,0,0,.73-5.6l.19-5H59.19V25.1ZM49.53,22.32a7.15,7.15,0,0,1-1,2.78h6.14V16.16H50L50,17.92A32.4,32.4,0,0,1,49.53,22.32Z"/><path d="M78.64,12.53,71.92,25.05a8.2,8.2,0,0,1-2.6,3.06,5.86,5.86,0,0,1-3.37,1,7.82,7.82,0,0,1-2.87-.6l1.08-3.38a6.25,6.25,0,0,0,1.62.28,2.38,2.38,0,0,0,1.2-.3,3.08,3.08,0,0,0,1-.95l-6.3-11.67h4.84l3.77,7.82,3.92-7.82Z"/><polygon points="101.26 25.1 101.26 12.53 96.74 12.53 96.74 25.1 96.65 25.1 92.55 25.1 92.55 12.53 88.04 12.53 88.04 25.1 83.8 25.1 83.8 12.53 79.28 12.53 79.28 28.73 99.15 28.73 99.15 32 103.37 32 103.37 25.1 101.26 25.1"/><path d="M118.23,25.19v3.55h-13V12.53h12.71v3.54h-8.17V18.8H117v3.43h-7.2v3Z"/><path d="M133.05,25.19v3.55H120V12.53h12.71v3.54h-8.17V18.8h7.2v3.43h-7.2v3Z"/><path d="M135.81,19.2h11.57v2.61H135.81Z"/><path d="M66.85,34.49a7.76,7.76,0,0,1,3,3,9.17,9.17,0,0,1,0,8.71,7.76,7.76,0,0,1-3,3,8.91,8.91,0,0,1-4.4,1.08,10,10,0,0,1-4-.79,7.73,7.73,0,0,1-3-2.27l2.9-2.64a4.93,4.93,0,0,0,3.89,1.9,4,4,0,0,0,2.49-.8,4.1,4.1,0,0,0,1.42-2.21H60.27V40.09h5.81A3.9,3.9,0,0,0,64.67,38a4,4,0,0,0-2.45-.76,5,5,0,0,0-3.89,1.89l-2.9-2.64a7.71,7.71,0,0,1,3-2.26,9.84,9.84,0,0,1,4-.79A9,9,0,0,1,66.85,34.49Z"/><path d="M85.49,37.38h-5V50H76V37.38H71V33.74H85.49Z"/><path d="M89.9,49.19a8.29,8.29,0,0,1,0-14.68,10.34,10.34,0,0,1,9.24,0,8.29,8.29,0,0,1,0,14.68,10.34,10.34,0,0,1-9.24,0Zm6.84-3.29a4.2,4.2,0,0,0,1.58-1.63,5.34,5.34,0,0,0,0-4.84,4.16,4.16,0,0,0-1.58-1.64,4.61,4.61,0,0,0-4.44,0,4.16,4.16,0,0,0-1.58,1.64,5.34,5.34,0,0,0,0,4.84A4.2,4.2,0,0,0,92.3,45.9a4.54,4.54,0,0,0,4.44,0Z"/><path d="M124.17,42.91a3.83,3.83,0,0,1,.75,2.41,4,4,0,0,1-1.68,3.39A7.85,7.85,0,0,1,118.49,50h-8.32V33.74h7.88a8,8,0,0,1,4.52,1.1A3.57,3.57,0,0,1,124.18,38a3.82,3.82,0,0,1-.57,2.08A4,4,0,0,1,122,41.48,4.34,4.34,0,0,1,124.17,42.91Zm-9.48-2.68h2.92c1.29,0,1.94-.54,1.94-1.6s-.65-1.6-1.94-1.6h-2.92Zm5.6,4.74c0-1.09-.66-1.64-2-1.64h-3.61v3.33h3.61C119.63,46.66,120.29,46.1,120.29,45Z"/><path d="M139.46,40.24a4.82,4.82,0,0,1,1.63,3.95,5.24,5.24,0,0,1-1.81,4.28,7.69,7.69,0,0,1-5,1.48h-7.66V33.74h4.52v5.17h3.75A7,7,0,0,1,139.46,40.24ZM135.79,46a2.25,2.25,0,0,0,.69-1.76c0-1.41-.84-2.11-2.53-2.11h-2.84v4.49H134A2.58,2.58,0,0,0,135.79,46Zm7.08-12.3h4.51V50h-4.51Z"/></svg>